<?xml version="1.0" encoding="UTF-8" standalone="no"?>
<!DOCTYPE svg PUBLIC "-//W3C//DTD SVG 1.1//EN"
 "http://www.w3.org/Graphics/SVG/1.1/DTD/svg11.dtd">
<!-- Generated by graphviz version 2.40.1 (20161225.0304)
 -->
<!-- Title: %3 Pages: 1 -->
<svg width="515pt" height="404pt"
 viewBox="0.00 0.00 514.76 404.00" xmlns="http://www.w3.org/2000/svg" xmlns:xlink="http://www.w3.org/1999/xlink">
<g id="graph0" class="graph" transform="scale(1 1) rotate(0) translate(4 400)">
<title>%3</title>
<polygon fill="#ffffff" stroke="transparent" points="-4,4 -4,-400 510.7602,-400 510.7602,4 -4,4"/>
<!-- [root] aws_instance.web -->
<g id="node1" class="node">
<title>[root] aws_instance.web</title>
<polygon fill="none" stroke="#000000" points="360.5633,-180 242.6298,-180 242.6298,-144 360.5633,-144 360.5633,-180"/>
<text text-anchor="middle" x="301.5965" y="-157.8" font-family="Times,serif" font-size="14.00" fill="#000000">aws_instance.web</text>
</g>
<!-- [root] provider.aws -->
<g id="node2" class="node">
<title>[root] provider.aws</title>
<polygon fill="none" stroke="#000000" points="301.5965,-108 222.9882,-90 301.5965,-72 380.2048,-90 301.5965,-108"/>
<text text-anchor="middle" x="301.5965" y="-85.8" font-family="Times,serif" font-size="14.00" fill="#000000">provider.aws</text>
</g>
<!-- [root] aws_instance.web&#45;&gt;[root] provider.aws -->
<g id="edge1" class="edge">
<title>[root] aws_instance.web&#45;&gt;[root] provider.aws</title>
<path fill="none" stroke="#000000" d="M301.5965,-143.8314C301.5965,-136.131 301.5965,-126.9743 301.5965,-118.4166"/>
<polygon fill="#000000" stroke="#000000" points="305.0966,-118.4132 301.5965,-108.4133 298.0966,-118.4133 305.0966,-118.4132"/>
</g>
<!-- [root] var.region -->
<g id="node6" class="node">
<title>[root] var.region</title>
<ellipse fill="none" stroke="#000000" cx="301.5965" cy="-18" rx="68.1287" ry="18"/>
<text text-anchor="middle" x="301.5965" y="-13.8" font-family="Times,serif" font-size="14.00" fill="#000000">[root] var.region</text>
</g>
<!-- [root] provider.aws&#45;&gt;[root] var.region -->
<g id="edge5" class="edge">
<title>[root] provider.aws&#45;&gt;[root] var.region</title>
<path fill="none" stroke="#000000" d="M301.5965,-71.8314C301.5965,-64.131 301.5965,-54.9743 301.5965,-46.4166"/>
<polygon fill="#000000" stroke="#000000" points="305.0966,-46.4132 301.5965,-36.4133 298.0966,-46.4133 305.0966,-46.4132"/>
</g>
<!-- [root] meta.count&#45;boundary (count boundary fixup) -->
<g id="node3" class="node">
<title>[root] meta.count&#45;boundary (count boundary fixup)</title>
<ellipse fill="none" stroke="#000000" cx="191.5965" cy="-306" rx="191.6931" ry="18"/>
<text text-anchor="middle" x="191.5965" y="-301.8" font-family="Times,serif" font-size="14.00" fill="#000000">[root] meta.count&#45;boundary (count boundary fixup)</text>
</g>
<!-- [root] output.ip -->
<g id="node4" class="node">
<title>[root] output.ip</title>
<ellipse fill="none" stroke="#000000" cx="208.5965" cy="-234" rx="64.2873" ry="18"/>
<text text-anchor="middle" x="208.5965" y="-229.8" font-family="Times,serif" font-size="14.00" fill="#000000">[root] output.ip</text>
</g>
<!-- [root] meta.count&#45;boundary (count boundary fixup)&#45;&gt;[root] output.ip -->
<g id="edge2" class="edge">
<title>[root] meta.count&#45;boundary (count boundary fixup)&#45;&gt;[root] output.ip</title>
<path fill="none" stroke="#000000" d="M195.8863,-287.8314C197.7045,-280.131 199.8665,-270.9743 201.887,-262.4166"/>
<polygon fill="#000000" stroke="#000000" points="205.3573,-262.95 204.2489,-252.4133 198.5446,-261.3414 205.3573,-262.95"/>
</g>
<!-- [root] output.ip&#45;&gt;[root] aws_instance.web -->
<g id="edge3" class="edge">
<title>[root] output.ip&#45;&gt;[root] aws_instance.web</title>
<path fill="none" stroke="#000000" d="M230.6362,-216.937C242.3567,-207.8631 256.9755,-196.5453 269.8935,-186.5443"/>
<polygon fill="#000000" stroke="#000000" points="272.3246,-189.0885 278.0893,-180.1992 268.0394,-183.5534 272.3246,-189.0885"/>
</g>
<!-- [root] provider.aws (close) -->
<g id="node5" class="node">
<title>[root] provider.aws (close)</title>
<ellipse fill="none" stroke="#000000" cx="402.5965" cy="-234" rx="104.3276" ry="18"/>
<text text-anchor="middle" x="402.5965" y="-229.8" font-family="Times,serif" font-size="14.00" fill="#000000">[root] provider.aws (close)</text>
</g>
<!-- [root] provider.aws (close)&#45;&gt;[root] aws_instance.web -->
<g id="edge4" class="edge">
<title>[root] provider.aws (close)&#45;&gt;[root] aws_instance.web</title>
<path fill="none" stroke="#000000" d="M377.8891,-216.3868C365.1214,-207.2851 349.3469,-196.0399 335.4613,-186.1412"/>
<polygon fill="#000000" stroke="#000000" points="337.2779,-183.138 327.1035,-180.1832 333.2146,-188.8379 337.2779,-183.138"/>
</g>
<!-- [root] root -->
<g id="node7" class="node">
<title>[root] root</title>
<ellipse fill="none" stroke="#000000" cx="301.5965" cy="-378" rx="46.8976" ry="18"/>
<text text-anchor="middle" x="301.5965" y="-373.8" font-family="Times,serif" font-size="14.00" fill="#000000">[root] root</text>
</g>
<!-- [root] root&#45;&gt;[root] meta.count&#45;boundary (count boundary fixup) -->
<g id="edge6" class="edge">
<title>[root] root&#45;&gt;[root] meta.count&#45;boundary (count boundary fixup)</title>
<path fill="none" stroke="#000000" d="M277.7281,-362.3771C263.12,-352.8154 244.1431,-340.3941 227.7211,-329.6452"/>
<polygon fill="#000000" stroke="#000000" points="229.1884,-326.4225 218.9046,-323.8744 225.3548,-332.2794 229.1884,-326.4225"/>
</g>
<!-- [root] root&#45;&gt;[root] provider.aws (close) -->
<g id="edge7" class="edge">
<title>[root] root&#45;&gt;[root] provider.aws (close)</title>
<path fill="none" stroke="#000000" d="M337.0779,-366.0194C356.7429,-357.4701 379.7494,-343.9139 392.5965,-324 404.3351,-305.8045 406.3371,-281.1359 405.6816,-262.2266"/>
<polygon fill="#000000" stroke="#000000" points="409.1677,-261.8904 405.0657,-252.1219 402.1806,-262.3164 409.1677,-261.8904"/>
</g>
</g>
</svg>
